<svg width="16" height="16" viewBox="0 0 16 16" fill="none" xmlns="http://www.w3.org/2000/svg">
    <path fill-rule="evenodd" clip-rule="evenodd"
        d="M3.02659 1.33325H5.27992C6.21992 1.33325 6.97325 2.09992 6.97325 3.04059V5.31325C6.97325 6.25992 6.21992 7.01992 5.27992 7.01992H3.02659C2.09325 7.01992 1.33325 6.25992 1.33325 5.31325V3.04059C1.33325 2.09992 2.09325 1.33325 3.02659 1.33325ZM3.02659 8.97972H5.27992C6.21992 8.97972 6.97325 9.74039 6.97325 10.6871V12.9597C6.97325 13.8997 6.21992 14.6664 5.27992 14.6664H3.02659C2.09325 14.6664 1.33325 13.8997 1.33325 12.9597V10.6871C1.33325 9.74039 2.09325 8.97972 3.02659 8.97972ZM12.9733 1.33325H10.72C9.77999 1.33325 9.02665 2.09992 9.02665 3.04059V5.31325C9.02665 6.25992 9.77999 7.01992 10.72 7.01992H12.9733C13.9067 7.01992 14.6667 6.25992 14.6667 5.31325V3.04059C14.6667 2.09992 13.9067 1.33325 12.9733 1.33325ZM10.72 8.97972H12.9733C13.9067 8.97972 14.6667 9.74039 14.6667 10.6871V12.9597C14.6667 13.8997 13.9067 14.6664 12.9733 14.6664H10.72C9.77999 14.6664 9.02665 13.8997 9.02665 12.9597V10.6871C9.02665 9.74039 9.77999 8.97972 10.72 8.97972Z"
        fill="#FF4D67" />
</svg>